Motion_sv09_l
version=1
nRows=9
nColumns=43
inDegrees=yes
endheader
time	pelvis_tilt	pelvis_list	pelvis_rotation	pelvis_tx	pelvis_ty	pelvis_tz	hip_flexion_r	hip_adduction_r	hip_rotation_r	knee_angle_r	ankle_angle_r	subtalar_angle_r	mtp_angle_r	hip_flexion_l	hip_adduction_l	hip_rotation_l	knee_angle_l	ankle_angle_l	subtalar_angle_l	mtp_angle_l	lumbar_extension	lumbar_bending	lumbar_rotation	neck_flexion	neck_lateral_bending	neck_rotation	arm_flex_r	arm_add_r	arm_rot_r	elbow_flex_r	pro_sup_r	wrist_flex_r	wrist_dev_r	hand_finger_flex_r	arm_flex_l	arm_add_l	arm_rot_l	elbow_flex_l	pro_sup_l	wrist_flex_l	wrist_dev_l	hand_finger_flex_l
      0.00250000	     -9.58300629	     -4.30566558	    107.30272086	      0.00008010	      0.90213918	      1.90705029	     27.82980181	    -11.51263202	     -7.45624093	    -55.30904873	     19.45123948	    -18.72625365	     -6.34651926	     36.25508164	     -3.30836434	      1.58836393	   -107.00686821	      7.58342377	    -16.67917117	     17.70703603	    -32.53803672	     15.38078575	     11.88802003	     34.60833260	    -10.12722588	     -0.91277135	     90.20215438	    -44.85242761	     33.59113869	     72.73312413	    162.42076998	     22.22965563	      6.60972145	    -59.53811444	     70.83540412	    -34.82103163	     24.07567576	    110.84552444	    126.56852913	    -40.64074333	    -18.34818674	      0.68974608
      0.00500000	     -9.96804164	     -4.20807312	    107.38640491	      0.00094769	      0.90359113	      1.90404704	     27.24079890	    -11.84268674	     -7.73155843	    -55.01247746	     19.63324751	    -18.77713344	     -6.29175939	     37.32964214	     -3.33078783	      1.50623731	   -107.94964681	      7.76556318	    -16.55356394	     17.77360139	    -32.78965622	     15.00868996	     11.91234635	     34.49129911	    -10.40496385	     -1.03843848	     90.37641797	    -45.28770994	     33.79614708	     72.63956095	    162.08051078	     22.75800746	      6.44732100	    -59.24886642	     72.19333623	    -35.42810038	     24.56119795	    110.71489322	    126.78623813	    -40.65025962	    -18.16212459	      0.98615372
      0.00750000	    -10.33421319	     -4.17356420	    107.56641454	      0.00146454	      0.90496633	      1.90099788	     26.62944031	    -12.32491849	     -8.31880006	    -54.62453791	     19.83309721	    -18.51580065	     -6.13165381	     38.50901100	     -3.31523397	      1.51554865	   -108.91720957	      8.07256776	    -15.74907336	     17.98676336	    -32.88163085	     14.59242184	     12.14874139	     34.18625745	    -10.33710779	     -1.67629916	     90.26187801	    -46.33270161	     33.83779166	     72.91154845	    161.78181156	     23.60081527	      6.88324656	    -58.74005546	     73.94396651	    -35.55269294	     25.83542625	    110.25927600	    126.62449292	    -41.50276023	    -17.47723194	      1.44683300
      0.01000000	    -10.69779272	     -4.13204828	    107.56257790	      0.00230262	      0.90636842	      1.89803271	     26.13923481	    -12.62890643	     -8.51267311	    -54.33499048	     19.96384291	    -18.51285066	     -6.06986185	     39.68043742	     -3.42541519	      1.35826242	   -109.85722884	      8.18148752	    -15.48921946	     18.06977966	    -33.07824532	     14.21642820	     12.26004030	     34.01263265	    -10.74288290	     -1.77819879	     90.49192547	    -46.77174479	     34.16370664	     72.79301861	    161.56285419	     24.13372286	      6.87366133	    -58.49770374	     75.33886474	    -36.09029389	     26.34024517	    110.01476662	    126.74794237	    -41.44417726	    -17.52871421	      1.66827342
      0.01250000	    -11.06405944	     -4.15824341	    107.67418151	      0.00297781	      0.90767363	      1.89524126	     25.66022103	    -13.05123981	     -8.87845538	    -53.99655289	     20.10865118	    -18.22941788	     -5.90949205	     40.98251405	     -3.42127417	      1.35362125	   -110.82240663	      8.47023508	    -14.72533744	     18.29685250	    -33.14520261	     13.77254097	     12.47776469	     33.74660152	    -10.68735106	     -2.39788620	     90.48536586	    -47.65718010	     34.28280554	     72.91704806	    161.18539325	     25.18919907	      7.26485183	    -58.03024331	     77.11313717	    -36.19211714	     27.47684836	    109.45519491	    126.35515784	    -41.94566477	    -17.19764636	      1.88221070
      0.01500000	    -11.44855951	     -4.19598321	    107.71802645	      0.00382358	      0.90910859	      1.89195653	     25.17188853	    -13.48218304	     -9.27069092	    -53.65832162	     20.27966871	    -17.94594244	     -5.65842153	     42.21396488	     -3.55199235	      1.24592999	   -111.69881964	      8.79255994	    -13.97869924	     18.61599782	    -33.19607986	     13.24734708	     12.73778369	     33.41827979	    -10.74120256	     -2.97795148	     90.19187997	    -48.63231331	     34.17151751	     73.25519597	    160.96373729	     25.94741227	      7.40243067	    -57.66922007	     78.92655123	    -36.41905891	     28.81322291	    108.92410584	    125.94337824	    -42.73115215	    -17.10290328	      2.17830618
      0.01750000	    -11.82255549	     -4.17579663	    107.71574274	      0.00459224	      0.91077732	      1.88889464	     24.66617965	    -13.80853644	     -9.43755739	    -53.32617449	     20.28929570	    -17.84888281	     -5.58466795	     43.41079066	     -3.69928994	      1.07612983	   -112.55179429	      8.91696526	    -13.76551410	     18.72858143	    -33.35603064	     12.86634424	     12.79000118	     33.18797512	    -11.16536274	     -3.12310722	     90.26953293	    -49.02533962	     34.35980308	     73.16057445	    160.63466240	     26.58166208	      7.37937546	    -57.40130351	     80.37786437	    -36.94933344	     29.39010342	    108.62338397	    125.99476176	    -42.58608778	    -17.19274302	      2.37091826
      0.02000000	    -12.25580593	     -4.26902326	    107.82791291	      0.00516174	      0.91231653	      1.88587241	     24.19350280	    -14.33920827	     -9.79295111	    -52.95552874	     20.44575998	    -17.40882860	     -5.30083528	     44.73762396	     -3.71965009	      0.97800353	   -113.41228670	      9.20781258	    -13.01053357	     19.08369299	    -33.34261209	     12.30624861	     12.95538969	     32.91671155	    -10.93842161	     -3.89285185	     89.90030992	    -50.02181258	     34.16385602	     73.45268769	    160.21884716	     27.61088697	      7.69949947	    -56.89266642	     82.30720886	    -36.99075151	     30.85119287	    108.00746772	    125.31605347	    -43.20362764	    -16.91098290	      2.50096293
      0.02250000	    -12.71215615	     -4.33399587	    107.81983384	      0.00604962	      0.91396742	      1.88272312	     23.74253248	    -14.81660858	    -10.05135442	    -52.61652275	     20.52272143	    -17.07090850	     -4.96045465	     45.97510004	     -3.80565929	      0.81696280	   -114.20415596	      9.43599361	    -12.50192520	     19.48494452	    -33.39914156	     11.70018443	     13.10542577	     32.59181037	    -11.00457712	     -4.41543565	     89.47136394	    -50.79068343	     33.83135359	     73.66620346	    159.85455018	     28.32463667	      7.69324356	    -56.39853189	     84.22802496	    -37.24198863	     32.21307983	    107.41515821	    124.83767006	    -43.81871409	    -16.95265939	      2.75205130
